<mxfile host="app.diagrams.net" modified="2024-04-15T06:44:04.397Z" agent="Mozilla/5.0 (Macintosh; Intel Mac OS X 10_15_7) AppleWebKit/537.36 (KHTML, like Gecko) Chrome/123.0.0.0 Safari/537.36" etag="aqWdFUQd8IIvskIcI8ro" version="24.2.1" type="device">
  <diagram name="第 1 页" id="TH1OHJZgaZveRKQ1wASi">
    <mxGraphModel dx="1466" dy="929" grid="1" gridSize="10" guides="1" tooltips="1" connect="1" arrows="1" fold="1" page="1" pageScale="1" pageWidth="827" pageHeight="1169" math="0" shadow="0">
      <root>
        <mxCell id="0" />
        <mxCell id="1" parent="0" />
        <mxCell id="OE_zhsWncpczE-tRypdt-91" value="" style="rounded=1;whiteSpace=wrap;html=1;dashed=1;shadow=1;sketch=1;curveFitting=1;jiggle=2;glass=0;" vertex="1" parent="1">
          <mxGeometry x="441.63" y="240" width="308.75" height="630" as="geometry" />
        </mxCell>
        <mxCell id="OE_zhsWncpczE-tRypdt-125" value="" style="rounded=1;whiteSpace=wrap;html=1;dashed=1;sketch=1;curveFitting=1;jiggle=2;shadow=0;" vertex="1" parent="1">
          <mxGeometry x="463.5" y="409.5" width="270" height="290" as="geometry" />
        </mxCell>
        <mxCell id="OE_zhsWncpczE-tRypdt-66" value="" style="rounded=1;whiteSpace=wrap;html=1;dashed=1;shadow=1;sketch=1;curveFitting=1;jiggle=2;glass=0;" vertex="1" parent="1">
          <mxGeometry x="76" y="239.5" width="308.75" height="630" as="geometry" />
        </mxCell>
        <mxCell id="OE_zhsWncpczE-tRypdt-123" value="" style="rounded=1;whiteSpace=wrap;html=1;dashed=1;sketch=1;curveFitting=1;jiggle=2;shadow=0;" vertex="1" parent="1">
          <mxGeometry x="100" y="400" width="270" height="290" as="geometry" />
        </mxCell>
        <mxCell id="OE_zhsWncpczE-tRypdt-26" style="rounded=0;orthogonalLoop=1;jettySize=auto;html=1;exitX=0.5;exitY=1;exitDx=0;exitDy=0;entryX=0.5;entryY=0;entryDx=0;entryDy=0;strokeColor=#009900;sketch=1;curveFitting=1;jiggle=2;shadow=1;flowAnimation=0;" edge="1" parent="1" source="OE_zhsWncpczE-tRypdt-2" target="OE_zhsWncpczE-tRypdt-3">
          <mxGeometry relative="1" as="geometry" />
        </mxCell>
        <mxCell id="OE_zhsWncpczE-tRypdt-90" style="rounded=0;orthogonalLoop=1;jettySize=auto;html=1;exitX=0.5;exitY=1;exitDx=0;exitDy=0;entryX=0.5;entryY=0;entryDx=0;entryDy=0;strokeColor=#009900;curved=0;shadow=1;sketch=1;curveFitting=1;jiggle=2;" edge="1" parent="1" source="OE_zhsWncpczE-tRypdt-2" target="OE_zhsWncpczE-tRypdt-72">
          <mxGeometry relative="1" as="geometry" />
        </mxCell>
        <mxCell id="OE_zhsWncpczE-tRypdt-2" value="vmauth-global-write" style="rounded=0;whiteSpace=wrap;html=1;sketch=1;curveFitting=1;jiggle=2;shadow=1;" vertex="1" parent="1">
          <mxGeometry x="343.5" y="150" width="120" height="60" as="geometry" />
        </mxCell>
        <mxCell id="OE_zhsWncpczE-tRypdt-27" style="edgeStyle=orthogonalEdgeStyle;rounded=0;orthogonalLoop=1;jettySize=auto;html=1;exitX=0.5;exitY=1;exitDx=0;exitDy=0;entryX=0.5;entryY=0;entryDx=0;entryDy=0;strokeColor=#009900;sketch=1;curveFitting=1;jiggle=2;shadow=1;" edge="1" parent="1" source="OE_zhsWncpczE-tRypdt-3" target="OE_zhsWncpczE-tRypdt-7">
          <mxGeometry relative="1" as="geometry" />
        </mxCell>
        <mxCell id="OE_zhsWncpczE-tRypdt-94" style="rounded=0;orthogonalLoop=1;jettySize=auto;html=1;exitX=0.5;exitY=1;exitDx=0;exitDy=0;entryX=0.5;entryY=0;entryDx=0;entryDy=0;shadow=1;sketch=1;curveFitting=1;jiggle=2;strokeColor=#009900;" edge="1" parent="1" source="OE_zhsWncpczE-tRypdt-3" target="OE_zhsWncpczE-tRypdt-78">
          <mxGeometry relative="1" as="geometry" />
        </mxCell>
        <mxCell id="OE_zhsWncpczE-tRypdt-3" value="vmagent" style="rounded=0;whiteSpace=wrap;html=1;sketch=1;curveFitting=1;jiggle=2;shadow=1;" vertex="1" parent="1">
          <mxGeometry x="176" y="260" width="120" height="50" as="geometry" />
        </mxCell>
        <mxCell id="OE_zhsWncpczE-tRypdt-5" value="vminsert1&amp;nbsp; &amp;nbsp; &amp;nbsp;&amp;nbsp;" style="rounded=0;whiteSpace=wrap;html=1;shadow=1;sketch=1;curveFitting=1;jiggle=2;" vertex="1" parent="1">
          <mxGeometry x="128.5" y="420" width="120" height="60" as="geometry" />
        </mxCell>
        <mxCell id="OE_zhsWncpczE-tRypdt-31" style="rounded=0;orthogonalLoop=1;jettySize=auto;html=1;exitX=0;exitY=1;exitDx=0;exitDy=0;fillColor=#009900;strokeColor=#009900;entryX=0.75;entryY=0;entryDx=0;entryDy=0;strokeWidth=2;sketch=1;curveFitting=1;jiggle=2;curved=0;" edge="1" parent="1" source="OE_zhsWncpczE-tRypdt-6" target="OE_zhsWncpczE-tRypdt-10">
          <mxGeometry relative="1" as="geometry" />
        </mxCell>
        <mxCell id="OE_zhsWncpczE-tRypdt-6" value="&lt;b&gt;&lt;font style=&quot;font-size: 14px;&quot;&gt;...&amp;nbsp; &lt;/font&gt;&lt;/b&gt;&amp;nbsp; &amp;nbsp; vminsertN" style="rounded=0;whiteSpace=wrap;html=1;shadow=1;sketch=1;curveFitting=1;jiggle=2;" vertex="1" parent="1">
          <mxGeometry x="218.5" y="420" width="120" height="60" as="geometry" />
        </mxCell>
        <mxCell id="OE_zhsWncpczE-tRypdt-28" style="rounded=0;orthogonalLoop=1;jettySize=auto;html=1;exitX=0.5;exitY=1;exitDx=0;exitDy=0;entryX=0.5;entryY=0;entryDx=0;entryDy=0;strokeColor=#009900;sketch=1;curveFitting=1;jiggle=2;shadow=1;" edge="1" parent="1" source="OE_zhsWncpczE-tRypdt-7" target="OE_zhsWncpczE-tRypdt-5">
          <mxGeometry relative="1" as="geometry" />
        </mxCell>
        <mxCell id="OE_zhsWncpczE-tRypdt-29" style="rounded=0;orthogonalLoop=1;jettySize=auto;html=1;exitX=0.5;exitY=1;exitDx=0;exitDy=0;entryX=0.5;entryY=0;entryDx=0;entryDy=0;fillColor=#009900;strokeColor=#009900;sketch=1;curveFitting=1;jiggle=2;shadow=1;" edge="1" parent="1" source="OE_zhsWncpczE-tRypdt-7" target="OE_zhsWncpczE-tRypdt-6">
          <mxGeometry relative="1" as="geometry" />
        </mxCell>
        <mxCell id="OE_zhsWncpczE-tRypdt-7" value="vmauth-write-balancer" style="rounded=0;whiteSpace=wrap;html=1;shadow=1;sketch=1;curveFitting=1;jiggle=2;" vertex="1" parent="1">
          <mxGeometry x="161" y="340" width="150" height="50" as="geometry" />
        </mxCell>
        <mxCell id="OE_zhsWncpczE-tRypdt-10" value="vmstorage1&amp;nbsp; &amp;nbsp; &amp;nbsp;&amp;nbsp;" style="rounded=0;whiteSpace=wrap;html=1;shadow=1;sketch=1;curveFitting=1;jiggle=2;" vertex="1" parent="1">
          <mxGeometry x="128.5" y="510" width="120" height="60" as="geometry" />
        </mxCell>
        <mxCell id="OE_zhsWncpczE-tRypdt-11" value="&lt;b&gt;&lt;font style=&quot;font-size: 14px;&quot;&gt;...&amp;nbsp; &amp;nbsp;&lt;/font&gt;&lt;/b&gt; &amp;nbsp; vmstorageN" style="rounded=0;whiteSpace=wrap;html=1;shadow=1;sketch=1;curveFitting=1;jiggle=2;glass=0;" vertex="1" parent="1">
          <mxGeometry x="223.5" y="510" width="120" height="60" as="geometry" />
        </mxCell>
        <mxCell id="OE_zhsWncpczE-tRypdt-12" value="vmselect1&amp;nbsp; &amp;nbsp; &amp;nbsp; &amp;nbsp; &amp;nbsp;" style="rounded=0;whiteSpace=wrap;html=1;shadow=1;sketch=1;curveFitting=1;jiggle=2;" vertex="1" parent="1">
          <mxGeometry x="128.5" y="600" width="120" height="60" as="geometry" />
        </mxCell>
        <mxCell id="OE_zhsWncpczE-tRypdt-34" style="rounded=0;orthogonalLoop=1;jettySize=auto;html=1;exitX=0;exitY=0;exitDx=0;exitDy=0;strokeColor=#CC0000;entryX=0;entryY=1;entryDx=0;entryDy=0;sketch=1;curveFitting=1;jiggle=2;strokeWidth=2;" edge="1" parent="1" source="OE_zhsWncpczE-tRypdt-13" target="OE_zhsWncpczE-tRypdt-11">
          <mxGeometry relative="1" as="geometry" />
        </mxCell>
        <mxCell id="OE_zhsWncpczE-tRypdt-13" value="&lt;b&gt;&lt;font style=&quot;font-size: 14px;&quot;&gt;&amp;nbsp; ...&amp;nbsp;&lt;/font&gt;&lt;/b&gt;&amp;nbsp; &amp;nbsp; &amp;nbsp; vmselectN" style="rounded=0;whiteSpace=wrap;html=1;shadow=1;align=left;sketch=1;curveFitting=1;jiggle=2;glass=0;" vertex="1" parent="1">
          <mxGeometry x="223.5" y="600" width="120" height="60" as="geometry" />
        </mxCell>
        <mxCell id="OE_zhsWncpczE-tRypdt-37" style="rounded=0;orthogonalLoop=1;jettySize=auto;html=1;exitX=0.5;exitY=0;exitDx=0;exitDy=0;strokeColor=#CC0000;shadow=1;sketch=1;curveFitting=1;jiggle=2;" edge="1" parent="1" source="OE_zhsWncpczE-tRypdt-14" target="OE_zhsWncpczE-tRypdt-13">
          <mxGeometry relative="1" as="geometry" />
        </mxCell>
        <mxCell id="OE_zhsWncpczE-tRypdt-38" style="rounded=0;orthogonalLoop=1;jettySize=auto;html=1;exitX=0.5;exitY=0;exitDx=0;exitDy=0;entryX=0.5;entryY=1;entryDx=0;entryDy=0;strokeColor=#CC0000;sketch=1;curveFitting=1;jiggle=2;shadow=1;" edge="1" parent="1" source="OE_zhsWncpczE-tRypdt-14" target="OE_zhsWncpczE-tRypdt-12">
          <mxGeometry relative="1" as="geometry" />
        </mxCell>
        <mxCell id="OE_zhsWncpczE-tRypdt-14" value="vmauth-read-balancer" style="rounded=0;whiteSpace=wrap;html=1;sketch=1;curveFitting=1;jiggle=2;shadow=1;" vertex="1" parent="1">
          <mxGeometry x="161" y="710" width="150" height="50" as="geometry" />
        </mxCell>
        <mxCell id="OE_zhsWncpczE-tRypdt-39" style="edgeStyle=orthogonalEdgeStyle;rounded=0;orthogonalLoop=1;jettySize=auto;html=1;exitX=0.5;exitY=0;exitDx=0;exitDy=0;entryX=0.5;entryY=1;entryDx=0;entryDy=0;strokeColor=#CC0000;shadow=1;sketch=1;curveFitting=1;jiggle=2;" edge="1" parent="1" source="OE_zhsWncpczE-tRypdt-15" target="OE_zhsWncpczE-tRypdt-14">
          <mxGeometry relative="1" as="geometry" />
        </mxCell>
        <mxCell id="OE_zhsWncpczE-tRypdt-96" style="rounded=0;orthogonalLoop=1;jettySize=auto;html=1;exitX=0.5;exitY=0;exitDx=0;exitDy=0;strokeColor=#CC0000;shadow=1;sketch=1;curveFitting=1;jiggle=2;" edge="1" parent="1" source="OE_zhsWncpczE-tRypdt-15">
          <mxGeometry relative="1" as="geometry">
            <mxPoint x="596" y="770" as="targetPoint" />
          </mxGeometry>
        </mxCell>
        <mxCell id="OE_zhsWncpczE-tRypdt-15" value="vmauth-read-proxy" style="rounded=1;whiteSpace=wrap;html=1;sketch=1;curveFitting=1;jiggle=2;shadow=1;" vertex="1" parent="1">
          <mxGeometry x="161" y="800" width="150" height="50" as="geometry" />
        </mxCell>
        <mxCell id="OE_zhsWncpczE-tRypdt-40" style="rounded=0;orthogonalLoop=1;jettySize=auto;html=1;exitX=0.5;exitY=0;exitDx=0;exitDy=0;entryX=0.5;entryY=1;entryDx=0;entryDy=0;fillColor=#CC0000;strokeColor=#CC0000;shadow=1;sketch=1;curveFitting=1;jiggle=2;" edge="1" parent="1" source="OE_zhsWncpczE-tRypdt-16" target="OE_zhsWncpczE-tRypdt-15">
          <mxGeometry relative="1" as="geometry" />
        </mxCell>
        <mxCell id="OE_zhsWncpczE-tRypdt-92" style="rounded=0;orthogonalLoop=1;jettySize=auto;html=1;exitX=0.5;exitY=0;exitDx=0;exitDy=0;entryX=0.5;entryY=1;entryDx=0;entryDy=0;strokeColor=#CC0000;shadow=1;sketch=1;curveFitting=1;jiggle=2;" edge="1" parent="1" source="OE_zhsWncpczE-tRypdt-16" target="OE_zhsWncpczE-tRypdt-88">
          <mxGeometry relative="1" as="geometry" />
        </mxCell>
        <mxCell id="OE_zhsWncpczE-tRypdt-16" value="vmauth-global-read" style="rounded=0;whiteSpace=wrap;html=1;sketch=1;curveFitting=1;jiggle=2;shadow=1;" vertex="1" parent="1">
          <mxGeometry x="345" y="910" width="130" height="50" as="geometry" />
        </mxCell>
        <mxCell id="OE_zhsWncpczE-tRypdt-68" value="&lt;b&gt;&lt;font style=&quot;font-size: 14px;&quot;&gt;zone-eu-1&lt;/font&gt;&lt;/b&gt;" style="text;html=1;align=center;verticalAlign=middle;resizable=0;points=[];autosize=1;strokeColor=none;fillColor=none;" vertex="1" parent="1">
          <mxGeometry x="82.25" y="250" width="90" height="30" as="geometry" />
        </mxCell>
        <mxCell id="OE_zhsWncpczE-tRypdt-71" style="edgeStyle=orthogonalEdgeStyle;rounded=0;orthogonalLoop=1;jettySize=auto;html=1;exitX=0.5;exitY=1;exitDx=0;exitDy=0;entryX=0.5;entryY=0;entryDx=0;entryDy=0;strokeColor=#009900;sketch=1;curveFitting=1;jiggle=2;shadow=1;" edge="1" parent="1" source="OE_zhsWncpczE-tRypdt-72" target="OE_zhsWncpczE-tRypdt-78">
          <mxGeometry relative="1" as="geometry" />
        </mxCell>
        <mxCell id="OE_zhsWncpczE-tRypdt-95" style="rounded=0;orthogonalLoop=1;jettySize=auto;html=1;exitX=0.5;exitY=1;exitDx=0;exitDy=0;entryX=0.5;entryY=0;entryDx=0;entryDy=0;strokeColor=#009900;sketch=1;curveFitting=1;jiggle=2;shadow=1;" edge="1" parent="1" source="OE_zhsWncpczE-tRypdt-72" target="OE_zhsWncpczE-tRypdt-7">
          <mxGeometry relative="1" as="geometry" />
        </mxCell>
        <mxCell id="OE_zhsWncpczE-tRypdt-72" value="vmagent" style="rounded=0;whiteSpace=wrap;html=1;sketch=1;curveFitting=1;jiggle=2;shadow=1;" vertex="1" parent="1">
          <mxGeometry x="536" y="264.25" width="120" height="50" as="geometry" />
        </mxCell>
        <mxCell id="OE_zhsWncpczE-tRypdt-73" value="vminsert1&amp;nbsp; &amp;nbsp; &amp;nbsp;&amp;nbsp;" style="rounded=0;whiteSpace=wrap;html=1;shadow=1;sketch=1;curveFitting=1;jiggle=2;" vertex="1" parent="1">
          <mxGeometry x="488.5" y="424.25" width="120" height="60" as="geometry" />
        </mxCell>
        <mxCell id="OE_zhsWncpczE-tRypdt-74" style="rounded=0;orthogonalLoop=1;jettySize=auto;html=1;exitX=0;exitY=1;exitDx=0;exitDy=0;fillColor=#009900;strokeColor=#009900;entryX=0.75;entryY=0;entryDx=0;entryDy=0;sketch=1;curveFitting=1;jiggle=2;shadow=0;jumpStyle=none;strokeWidth=2;" edge="1" parent="1" source="OE_zhsWncpczE-tRypdt-75" target="OE_zhsWncpczE-tRypdt-79">
          <mxGeometry relative="1" as="geometry" />
        </mxCell>
        <mxCell id="OE_zhsWncpczE-tRypdt-75" value="&lt;b&gt;&lt;font style=&quot;font-size: 14px;&quot;&gt;...&amp;nbsp; &lt;/font&gt;&lt;/b&gt;&amp;nbsp; &amp;nbsp; vminsertN" style="rounded=0;whiteSpace=wrap;html=1;shadow=1;sketch=1;curveFitting=1;jiggle=2;" vertex="1" parent="1">
          <mxGeometry x="578.5" y="424.25" width="120" height="60" as="geometry" />
        </mxCell>
        <mxCell id="OE_zhsWncpczE-tRypdt-76" style="rounded=0;orthogonalLoop=1;jettySize=auto;html=1;exitX=0.5;exitY=1;exitDx=0;exitDy=0;entryX=0.5;entryY=0;entryDx=0;entryDy=0;strokeColor=#009900;sketch=1;curveFitting=1;jiggle=2;shadow=1;" edge="1" parent="1" source="OE_zhsWncpczE-tRypdt-78" target="OE_zhsWncpczE-tRypdt-73">
          <mxGeometry relative="1" as="geometry" />
        </mxCell>
        <mxCell id="OE_zhsWncpczE-tRypdt-77" style="rounded=0;orthogonalLoop=1;jettySize=auto;html=1;exitX=0.5;exitY=1;exitDx=0;exitDy=0;entryX=0.5;entryY=0;entryDx=0;entryDy=0;fillColor=#009900;strokeColor=#009900;shadow=1;sketch=1;curveFitting=1;jiggle=2;" edge="1" parent="1" source="OE_zhsWncpczE-tRypdt-78" target="OE_zhsWncpczE-tRypdt-75">
          <mxGeometry relative="1" as="geometry" />
        </mxCell>
        <mxCell id="OE_zhsWncpczE-tRypdt-78" value="vmauth-write-balancer" style="rounded=0;whiteSpace=wrap;html=1;shadow=1;sketch=1;curveFitting=1;jiggle=2;" vertex="1" parent="1">
          <mxGeometry x="521" y="344.25" width="150" height="50" as="geometry" />
        </mxCell>
        <mxCell id="OE_zhsWncpczE-tRypdt-79" value="vmstorage1&amp;nbsp; &amp;nbsp; &amp;nbsp;&amp;nbsp;" style="rounded=0;whiteSpace=wrap;html=1;shadow=1;sketch=1;curveFitting=1;jiggle=2;" vertex="1" parent="1">
          <mxGeometry x="488.5" y="514.25" width="120" height="60" as="geometry" />
        </mxCell>
        <mxCell id="OE_zhsWncpczE-tRypdt-80" value="&lt;b&gt;&lt;font style=&quot;font-size: 14px;&quot;&gt;...&amp;nbsp; &amp;nbsp;&lt;/font&gt;&lt;/b&gt; &amp;nbsp; vmstorageN" style="rounded=0;whiteSpace=wrap;html=1;shadow=1;sketch=1;curveFitting=1;jiggle=2;glass=0;" vertex="1" parent="1">
          <mxGeometry x="583.5" y="514.25" width="120" height="60" as="geometry" />
        </mxCell>
        <mxCell id="OE_zhsWncpczE-tRypdt-81" value="vmselect1&amp;nbsp; &amp;nbsp; &amp;nbsp; &amp;nbsp; &amp;nbsp;" style="rounded=0;whiteSpace=wrap;html=1;shadow=1;sketch=1;curveFitting=1;jiggle=2;" vertex="1" parent="1">
          <mxGeometry x="488.5" y="600" width="120" height="60" as="geometry" />
        </mxCell>
        <mxCell id="OE_zhsWncpczE-tRypdt-82" style="rounded=0;orthogonalLoop=1;jettySize=auto;html=1;exitX=0;exitY=0;exitDx=0;exitDy=0;strokeColor=#CC0000;entryX=0;entryY=1;entryDx=0;entryDy=0;shadow=0;strokeWidth=2;sketch=1;curveFitting=1;jiggle=2;" edge="1" parent="1" source="OE_zhsWncpczE-tRypdt-83" target="OE_zhsWncpczE-tRypdt-80">
          <mxGeometry relative="1" as="geometry" />
        </mxCell>
        <mxCell id="OE_zhsWncpczE-tRypdt-83" value="&lt;b&gt;&lt;font style=&quot;font-size: 14px;&quot;&gt;&amp;nbsp; ...&amp;nbsp;&lt;/font&gt;&lt;/b&gt;&amp;nbsp; &amp;nbsp; &amp;nbsp; vmselectN" style="rounded=0;whiteSpace=wrap;html=1;shadow=1;align=left;sketch=1;curveFitting=1;jiggle=2;glass=0;" vertex="1" parent="1">
          <mxGeometry x="583.5" y="600" width="120" height="60" as="geometry" />
        </mxCell>
        <mxCell id="OE_zhsWncpczE-tRypdt-84" style="rounded=0;orthogonalLoop=1;jettySize=auto;html=1;exitX=0.5;exitY=0;exitDx=0;exitDy=0;strokeColor=#CC0000;sketch=1;curveFitting=1;jiggle=2;shadow=1;" edge="1" parent="1" source="OE_zhsWncpczE-tRypdt-86" target="OE_zhsWncpczE-tRypdt-83">
          <mxGeometry relative="1" as="geometry" />
        </mxCell>
        <mxCell id="OE_zhsWncpczE-tRypdt-85" style="rounded=0;orthogonalLoop=1;jettySize=auto;html=1;exitX=0.5;exitY=0;exitDx=0;exitDy=0;entryX=0.5;entryY=1;entryDx=0;entryDy=0;strokeColor=#CC0000;shadow=1;sketch=1;curveFitting=1;jiggle=2;" edge="1" parent="1" source="OE_zhsWncpczE-tRypdt-86" target="OE_zhsWncpczE-tRypdt-81">
          <mxGeometry relative="1" as="geometry" />
        </mxCell>
        <mxCell id="OE_zhsWncpczE-tRypdt-86" value="vmauth-read-balancer" style="rounded=0;whiteSpace=wrap;html=1;sketch=1;curveFitting=1;jiggle=2;shadow=1;" vertex="1" parent="1">
          <mxGeometry x="521" y="714.25" width="150" height="50" as="geometry" />
        </mxCell>
        <mxCell id="OE_zhsWncpczE-tRypdt-87" style="edgeStyle=orthogonalEdgeStyle;rounded=0;orthogonalLoop=1;jettySize=auto;html=1;exitX=0.5;exitY=0;exitDx=0;exitDy=0;entryX=0.5;entryY=1;entryDx=0;entryDy=0;strokeColor=#CC0000;sketch=1;curveFitting=1;jiggle=2;shadow=1;" edge="1" parent="1" source="OE_zhsWncpczE-tRypdt-88" target="OE_zhsWncpczE-tRypdt-86">
          <mxGeometry relative="1" as="geometry" />
        </mxCell>
        <mxCell id="OE_zhsWncpczE-tRypdt-97" style="rounded=0;orthogonalLoop=1;jettySize=auto;html=1;exitX=0.5;exitY=0;exitDx=0;exitDy=0;strokeColor=#CC0000;sketch=1;curveFitting=1;jiggle=2;shadow=1;" edge="1" parent="1" source="OE_zhsWncpczE-tRypdt-88">
          <mxGeometry relative="1" as="geometry">
            <mxPoint x="236" y="760" as="targetPoint" />
          </mxGeometry>
        </mxCell>
        <mxCell id="OE_zhsWncpczE-tRypdt-88" value="vmauth-read-proxy" style="rounded=1;whiteSpace=wrap;html=1;sketch=1;curveFitting=1;jiggle=2;shadow=1;" vertex="1" parent="1">
          <mxGeometry x="521" y="800" width="150" height="50" as="geometry" />
        </mxCell>
        <mxCell id="OE_zhsWncpczE-tRypdt-89" value="&lt;b&gt;&lt;font style=&quot;font-size: 14px;&quot;&gt;zone-us-1&lt;/font&gt;&lt;/b&gt;" style="text;html=1;align=center;verticalAlign=middle;resizable=0;points=[];autosize=1;strokeColor=none;fillColor=none;" vertex="1" parent="1">
          <mxGeometry x="660.38" y="250" width="90" height="30" as="geometry" />
        </mxCell>
        <mxCell id="OE_zhsWncpczE-tRypdt-98" value="" style="endArrow=classic;html=1;rounded=0;strokeColor=#009900;sketch=1;curveFitting=1;jiggle=2;shadow=1;" edge="1" parent="1">
          <mxGeometry width="50" height="50" relative="1" as="geometry">
            <mxPoint x="603.5" y="124" as="sourcePoint" />
            <mxPoint x="643.5" y="124.33" as="targetPoint" />
          </mxGeometry>
        </mxCell>
        <mxCell id="OE_zhsWncpczE-tRypdt-99" value="&lt;b&gt;&lt;font style=&quot;font-size: 14px;&quot;&gt;write&lt;/font&gt;&lt;/b&gt;" style="text;html=1;align=center;verticalAlign=middle;resizable=0;points=[];autosize=1;strokeColor=none;fillColor=none;" vertex="1" parent="1">
          <mxGeometry x="638.5" y="110" width="60" height="30" as="geometry" />
        </mxCell>
        <mxCell id="OE_zhsWncpczE-tRypdt-102" value="" style="endArrow=classic;html=1;rounded=0;strokeColor=#CC0000;sketch=1;curveFitting=1;jiggle=2;shadow=1;fillColor=#CC0000;" edge="1" parent="1">
          <mxGeometry width="50" height="50" relative="1" as="geometry">
            <mxPoint x="603.5" y="154" as="sourcePoint" />
            <mxPoint x="643.5" y="154.32999999999998" as="targetPoint" />
          </mxGeometry>
        </mxCell>
        <mxCell id="OE_zhsWncpczE-tRypdt-103" value="&lt;b&gt;&lt;font style=&quot;font-size: 14px;&quot;&gt;read&lt;/font&gt;&lt;/b&gt;" style="text;html=1;align=center;verticalAlign=middle;resizable=0;points=[];autosize=1;strokeColor=none;fillColor=none;" vertex="1" parent="1">
          <mxGeometry x="643.5" y="140" width="50" height="30" as="geometry" />
        </mxCell>
        <mxCell id="OE_zhsWncpczE-tRypdt-106" value="" style="endArrow=classic;html=1;rounded=0;entryX=0.5;entryY=1;entryDx=0;entryDy=0;strokeColor=#CC0000;strokeWidth=1;sketch=1;curveFitting=1;jiggle=2;shadow=1;exitX=0.5;exitY=0;exitDx=0;exitDy=0;edgeStyle=orthogonalEdgeStyle;curved=1;" edge="1" parent="1" source="OE_zhsWncpczE-tRypdt-110" target="OE_zhsWncpczE-tRypdt-16">
          <mxGeometry width="50" height="50" relative="1" as="geometry">
            <mxPoint x="410" y="1010" as="sourcePoint" />
            <mxPoint x="450" y="1000" as="targetPoint" />
          </mxGeometry>
        </mxCell>
        <mxCell id="OE_zhsWncpczE-tRypdt-107" value="" style="endArrow=classic;html=1;rounded=1;entryX=0.5;entryY=0;entryDx=0;entryDy=0;strokeWidth=1;sketch=1;curveFitting=1;jiggle=2;shadow=1;strokeColor=#009900;exitX=1;exitY=0.5;exitDx=0;exitDy=0;curved=1;edgeStyle=orthogonalEdgeStyle;" edge="1" parent="1" source="OE_zhsWncpczE-tRypdt-109" target="OE_zhsWncpczE-tRypdt-2">
          <mxGeometry width="50" height="50" relative="1" as="geometry">
            <mxPoint x="404" y="90" as="sourcePoint" />
            <mxPoint x="321" y="50" as="targetPoint" />
          </mxGeometry>
        </mxCell>
        <mxCell id="OE_zhsWncpczE-tRypdt-116" style="edgeStyle=orthogonalEdgeStyle;rounded=0;orthogonalLoop=1;jettySize=auto;html=1;exitX=0;exitY=0.5;exitDx=0;exitDy=0;entryX=1;entryY=0.5;entryDx=0;entryDy=0;curved=1;" edge="1" parent="1" source="OE_zhsWncpczE-tRypdt-109" target="OE_zhsWncpczE-tRypdt-114">
          <mxGeometry relative="1" as="geometry" />
        </mxCell>
        <mxCell id="OE_zhsWncpczE-tRypdt-117" style="edgeStyle=orthogonalEdgeStyle;rounded=0;orthogonalLoop=1;jettySize=auto;html=1;exitX=0;exitY=0.5;exitDx=0;exitDy=0;entryX=1;entryY=0.5;entryDx=0;entryDy=0;curved=1;" edge="1" parent="1" source="OE_zhsWncpczE-tRypdt-109" target="OE_zhsWncpczE-tRypdt-113">
          <mxGeometry relative="1" as="geometry" />
        </mxCell>
        <mxCell id="OE_zhsWncpczE-tRypdt-118" style="edgeStyle=orthogonalEdgeStyle;rounded=0;orthogonalLoop=1;jettySize=auto;html=1;exitX=0;exitY=0.5;exitDx=0;exitDy=0;entryX=1;entryY=0.5;entryDx=0;entryDy=0;curved=1;" edge="1" parent="1" source="OE_zhsWncpczE-tRypdt-109" target="OE_zhsWncpczE-tRypdt-115">
          <mxGeometry relative="1" as="geometry" />
        </mxCell>
        <mxCell id="OE_zhsWncpczE-tRypdt-119" value="scrape" style="edgeLabel;html=1;align=center;verticalAlign=middle;resizable=0;points=[];" vertex="1" connectable="0" parent="OE_zhsWncpczE-tRypdt-118">
          <mxGeometry x="0.1636" y="-1" relative="1" as="geometry">
            <mxPoint y="1" as="offset" />
          </mxGeometry>
        </mxCell>
        <mxCell id="OE_zhsWncpczE-tRypdt-109" value="extra-vmagent" style="rounded=0;whiteSpace=wrap;html=1;sketch=1;curveFitting=1;jiggle=2;shadow=0;dashed=1;" vertex="1" parent="1">
          <mxGeometry x="210" y="70" width="120" height="60" as="geometry" />
        </mxCell>
        <mxCell id="OE_zhsWncpczE-tRypdt-110" value="grafana" style="rounded=0;whiteSpace=wrap;html=1;sketch=1;curveFitting=1;jiggle=2;shadow=0;dashed=1;" vertex="1" parent="1">
          <mxGeometry x="264.75" y="1000" width="120" height="60" as="geometry" />
        </mxCell>
        <mxCell id="OE_zhsWncpczE-tRypdt-113" value="kube-state-metrics" style="rounded=0;whiteSpace=wrap;html=1;sketch=1;curveFitting=1;jiggle=2;shadow=0;dashed=1;" vertex="1" parent="1">
          <mxGeometry x="50" y="95" width="102.75" height="55" as="geometry" />
        </mxCell>
        <mxCell id="OE_zhsWncpczE-tRypdt-114" value="node-exporter" style="rounded=0;whiteSpace=wrap;html=1;sketch=1;curveFitting=1;jiggle=2;shadow=0;dashed=1;" vertex="1" parent="1">
          <mxGeometry x="50" y="40" width="94" height="40" as="geometry" />
        </mxCell>
        <mxCell id="OE_zhsWncpczE-tRypdt-115" value="..." style="rounded=0;whiteSpace=wrap;html=1;sketch=1;curveFitting=1;jiggle=2;shadow=0;dashed=1;" vertex="1" parent="1">
          <mxGeometry x="58.75" y="170" width="94" height="40" as="geometry" />
        </mxCell>
        <mxCell id="OE_zhsWncpczE-tRypdt-122" style="edgeStyle=orthogonalEdgeStyle;rounded=0;orthogonalLoop=1;jettySize=auto;html=1;exitX=0.5;exitY=0;exitDx=0;exitDy=0;curved=1;strokeColor=#CC0000;sketch=1;curveFitting=1;jiggle=2;shadow=1;" edge="1" parent="1" source="OE_zhsWncpczE-tRypdt-121">
          <mxGeometry relative="1" as="geometry">
            <mxPoint x="410" y="960" as="targetPoint" />
          </mxGeometry>
        </mxCell>
        <mxCell id="OE_zhsWncpczE-tRypdt-121" value="vmalert" style="rounded=0;whiteSpace=wrap;html=1;sketch=1;curveFitting=1;jiggle=2;shadow=0;dashed=1;" vertex="1" parent="1">
          <mxGeometry x="401" y="1000" width="120" height="60" as="geometry" />
        </mxCell>
        <mxCell id="OE_zhsWncpczE-tRypdt-124" value="vmcluster" style="text;html=1;align=center;verticalAlign=middle;resizable=0;points=[];autosize=1;strokeColor=none;fillColor=none;" vertex="1" parent="1">
          <mxGeometry x="289.75" y="660" width="70" height="30" as="geometry" />
        </mxCell>
        <mxCell id="OE_zhsWncpczE-tRypdt-126" value="vmcluster" style="text;html=1;align=center;verticalAlign=middle;resizable=0;points=[];autosize=1;strokeColor=none;fillColor=none;" vertex="1" parent="1">
          <mxGeometry x="656" y="669.5" width="70" height="30" as="geometry" />
        </mxCell>
      </root>
    </mxGraphModel>
  </diagram>
</mxfile>
